:FULLY-SPECIFIED
:FORCE-ALL-JOINTS-BE-3DOF
:DEGREES
136
root 7.84074 16.5258 -26.2735 -11.0042 8.60633 5.84128
lfemur -4.91068 12.9233 -22.1637
ltibia 35.4384 -0 0
lfoot -17.8368 -11.0352 0.00958395
ltoes 29.5618 -0 0
rfemur -102.292 -25.6569 62.661
rtibia 86.6879 -0 0
rfoot 3.02864 19.03 -0.365383
rtoes -28.4509 0 0
lowerback 17.3806 -2.95659 -9.41845
upperback 5.81148 -5.52208 -2.03268
thorax -2.76746 -2.78257 4.17376
lowerneck -12.6932 -0.440216 -0.166847
upperneck 0.687159 -0.706339 3.10788
head 2.44349 -0.242412 0.993457
lclavicle 6.9792e-15 -7.56306e-16 -9.54078e-31
lhumerus -41.7566 -21.5114 90.0188
lradius 54.0337 -0 0
lwrist 17.8527 0 0
lhand 8.79257 6.41141 0.0129478
lfingers 7.12502 -0 0
lthumb 33.9795 33.1923 0.0110793
rclavicle 6.9792e-15 -7.56306e-16 -9.54078e-31
rhumerus -43.5756 -26.397 -56.8746
rradius 80.4216 -0 0
rwrist -38.746 0 0
rhand -15.2678 -27.2865 1.35107
rfingers 7.12502 -0 0
rthumb 10.9027 -56.425 1.29164
137
root 7.8002 16.5067 -26.2706 -10.6759 9.67036 5.6032
lfemur -5.65179 13.2599 -21.8037
ltibia 35.9694 -0 0
lfoot -17.9654 -12.4782 0.0110779
ltoes 30.5082 -0 0
rfemur -103.032 -25.516 61.6179
rtibia 90.9818 -0 0
rfoot 11.0283 18.1305 -0.470922
rtoes -18.2144 0 0
lowerback 17.3337 -3.32037 -9.29065
upperback 5.71322 -5.97944 -2.11174
thorax -2.81297 -3.00068 4.09708
lowerneck -12.5848 -0.555964 -0.342726
upperneck 0.599406 -0.84379 3.39516
head 2.40151 -0.303508 1.10938
lclavicle 1.20118e-14 1.53928e-15 -1.30539e-30
lhumerus -41.2073 -22.5615 90.0195
lradius 53.415 -0 0
lwrist 17.6404 0 0
lhand 9.70742 6.82189 0.0118502
lfingers 7.12502 -0 0
lthumb 34.8491 33.4148 0.0143022
rclavicle 1.20118e-14 1.53928e-15 -1.30539e-30
rhumerus -44.4274 -27.0005 -57.491
rradius 81.6048 -0 0
rwrist -38.283 0 0
rhand -21.9788 -31.1495 1.78285
rfingers 7.12502 -0 0
rthumb 4.43001 -60.344 1.70793
138
root 7.75656 16.4906 -26.2691 -10.2861 10.8415 5.28576
lfemur -6.47533 13.6186 -21.364
ltibia 36.4659 -0 0
lfoot -18.0604 -13.9055 0.0101945
ltoes 31.3554 -0 0
rfemur -103.398 -25.4873 59.9937
rtibia 95.1496 -0 0
rfoot 19.4459 17.2462 -0.444152
rtoes -7.59017 0 0
lowerback 17.2327 -3.69936 -9.08716
upperback 5.58893 -6.43914 -2.15558
thorax -2.86054 -3.21885 4.01216
lowerneck -12.4598 -0.703335 -0.519498
upperneck 0.510719 -1.02319 3.68465
head 2.35725 -0.385601 1.22368
lclavicle 1.76081e-14 4.24171e-15 -1.37556e-30
lhumerus -40.5809 -23.6457 90.0585
lradius 52.6802 -0 0
lwrist 17.3036 0 0
lhand 10.7302 7.27993 0.00719313
lfingers 7.12502 -0 0
lthumb 35.8203 33.6536 0.0143656
rclavicle 1.76081e-14 4.24171e-15 -1.37556e-30
rhumerus -45.341 -27.3694 -58.1847
rradius 82.7368 -0 0
rwrist -37.2129 0 0
rhand -28.812 -35.2223 1.79053
rfingers 7.12502 -0 0
rthumb -2.16332 -64.4437 1.71973
139
root 7.71085 16.477 -26.2677 -9.85513 12.0387 4.93342
lfemur -7.33966 14.0173 -20.8936
ltibia 36.9199 -0 0
lfoot -18.1328 -15.0636 0.00761823
ltoes 31.813 -0 0
rfemur -103.41 -25.5916 58.0301
rtibia 99.0763 -0 0
rfoot 27.2889 16.5166 -0.302719
rtoes 2.03764 -0 0
lowerback 17.0811 -4.06581 -8.85518
upperback 5.44736 -6.87352 -2.17193
thorax -2.90265 -3.42447 3.93167
lowerneck -12.331 -0.871339 -0.687919
upperneck 0.423985 -1.23077 3.95988
head 2.3138 -0.482271 1.33027
lclavicle 2.36428e-14 6.86589e-15 -1.11801e-30
lhumerus -39.9231 -24.7256 90.1417
lradius 51.8991 -0 0
lwrist 16.8588 0 0
lhand 11.831 7.76296 0.00116783
lfingers 7.12502 -0 0
lthumb 36.8634 33.8839 0.0111397
rclavicle 2.36428e-14 6.86589e-15 -1.11801e-30
rhumerus -46.2766 -27.5154 -58.9609
rradius 83.8206 -0 0
rwrist -35.6602 0 0
rhand -35.1344 -39.1185 1.37271
rfingers 7.12502 -0 0
rthumb -8.26556 -68.3574 1.32377
140
root 7.6641 16.4651 -26.2652 -9.40124 13.1804 4.58919
lfemur -8.20348 14.4715 -20.4413
ltibia 37.3233 -0 0
lfoot -18.1935 -15.6992 0.00400877
ltoes 31.5904 -0 0
rfemur -103.081 -25.8434 55.9649
rtibia 102.647 -0 0
rfoot 33.5665 16.0675 -0.12151
rtoes 9.28496 -0 0
lowerback 16.8835 -4.3921 -8.64219
upperback 5.29743 -7.25493 -2.16882
thorax -2.93189 -3.60493 3.86819
lowerneck -12.211 -1.0491 -0.838632
upperneck 0.342355 -1.45283 4.20431
head 2.27428 -0.587117 1.42302
lclavicle 2.99907e-14 8.92676e-15 -5.96989e-31
lhumerus -39.2809 -25.7631 90.2779
lradius 51.1419 -0 0
lwrist 16.3225 0 0
lhand 12.9795 8.24855 -0.00282082
lfingers 7.12502 -0 0
lthumb 37.9489 34.0813 0.0056208
rclavicle 2.99907e-14 8.92676e-15 -5.96989e-31
rhumerus -47.1948 -27.4493 -59.825
rradius 84.8593 -0 0
rwrist -33.7493 0 0
rhand -40.3254 -42.4751 0.686908
rfingers 7.12502 -0 0
rthumb -13.2763 -71.7388 0.666931
141
root 7.61732 16.4543 -26.2603 -8.94031 14.1842 4.29462
lfemur -9.02603 14.9952 -20.056
ltibia 37.6681 0 0
lfoot -18.2535 -15.559 0
ltoes 30.3971 0 0
rfemur -102.423 -26.2576 54.0322
rtibia 105.747 0 0
rfoot 37.2901 16.0035 0
rtoes 12.7677 0 0
lowerback 16.645 -4.65099 -8.49605
upperback 5.14825 -7.55574 -2.15459
thorax -2.94093 -3.74757 3.83428
lowerneck -12.1128 -1.22585 -0.962151
upperneck 0.269253 -1.67575 4.40131
head 2.24186 -0.693758 1.49582
lclavicle 3.65267e-14 9.93923e-15 0
lhumerus -38.7025 -26.7199 90.479
lradius 50.4783 0 0
lwrist 15.7112 0 0
lhand 14.146 8.71447 0
lfingers 7.12502 0 0
lthumb 39.0472 34.221 0
rclavicle 3.65267e-14 9.93923e-15 0
rhumerus -48.0572 -27.1809 -60.781
rradius 85.8559 0 0
rwrist -31.6045 0 0
rhand -43.7941 -44.9784 0
rfingers 7.12502 0 0
rthumb -16.623 -74.2865 0
